<svg xmlns="http://www.w3.org/2000/svg" viewBox="0 0 512 512" width="512" height="512">
  <circle cx="256" cy="256" r="210" fill="none" stroke="#3C3489" stroke-width="16"/>
  <path d="M256 392
    C196 358 176 280 206 200
    C212 234 226 236 222 200
    C242 234 256 132 256 132
    C256 132 270 234 290 200
    C294 236 300 234 306 200
    C336 280 316 358 256 392Z"
    fill="#3C3489"/>
  <path d="M256 392
    C228 368 222 318 236 272
    C241 294 248 292 248 272
    C254 292 258 272 258 248
    C264 272 268 294 272 272
    C284 318 284 368 256 392Z"
    fill="#AFA9EC"/>
  <path d="M256 392
    C244 374 242 348 250 316
    C253 332 255 330 256 316
    C257 330 259 318 258 304
    C266 322 268 356 256 392Z"
    fill="#EEEDFE" opacity="0.7"/>
</svg>
